<?xml version="1.0" encoding="UTF-8"?>
<svg xmlns="http://www.w3.org/2000/svg" width="1200" height="760" viewBox="0 0 1200 760" role="img" aria-label="Work cover 01">
  <defs>
    <linearGradient id="bg" x1="0" y1="0" x2="1" y2="1">
      <stop offset="0%" stop-color="#0a1713"/>
      <stop offset="55%" stop-color="#10231d"/>
      <stop offset="100%" stop-color="#09110f"/>
    </linearGradient>
    <radialGradient id="glow" cx="76%" cy="18%" r="40%">
      <stop offset="0%" stop-color="#f4e8bd" stop-opacity="0.78"/>
      <stop offset="26%" stop-color="#f4e8bd" stop-opacity="0.22"/>
      <stop offset="100%" stop-color="#f4e8bd" stop-opacity="0"/>
    </radialGradient>
    <linearGradient id="line" x1="0" y1="0" x2="1" y2="0">
      <stop offset="0%" stop-color="#f3ead1" stop-opacity="0.18"/>
      <stop offset="100%" stop-color="#f3ead1" stop-opacity="0"/>
    </linearGradient>
  </defs>
  <rect width="1200" height="760" fill="url(#bg)"/>
  <circle cx="860" cy="170" r="210" fill="url(#glow)"/>
  <circle cx="860" cy="170" r="90" fill="#f4e8bd" fill-opacity="0.9"/>
  <circle cx="860" cy="170" r="130" fill="none" stroke="#f3ead1" stroke-opacity="0.08"/>
  <circle cx="860" cy="170" r="176" fill="none" stroke="#f3ead1" stroke-opacity="0.05"/>
  <rect x="84" y="82" width="1032" height="596" rx="34" fill="#fff8e0" fill-opacity="0.038" stroke="#fff8e0" stroke-opacity="0.11"/>
  <rect x="148" y="132" width="152" height="44" rx="22" fill="#fff8e0" fill-opacity="0.05" stroke="#fff8e0" stroke-opacity="0.12"/>
  <text x="224" y="160" text-anchor="middle" fill="#f4e8bd" font-size="24" font-family="Arial, Helvetica, sans-serif" letter-spacing="5">01</text>
  <rect x="144" y="286" width="460" height="8" rx="4" fill="url(#line)"/>
  <rect x="144" y="340" width="360" height="8" rx="4" fill="url(#line)"/>
  <rect x="144" y="394" width="420" height="8" rx="4" fill="url(#line)"/>
  <rect x="144" y="500" width="200" height="2" fill="url(#line)"/>
  <rect x="144" y="542" width="320" height="2" fill="url(#line)"/>
</svg>
